STARTFONT 2.1
COMMENT
COMMENT Converted from OpenType font "open-iconic.ttf" by "otf2bdf 3.0".
COMMENT
FONT -FreeType-Icons-Medium-R-Normal--33-240-100-100-P-312-ISO10646-1
SIZE 24 100 100
FONTBOUNDINGBOX 33 39 0 -5
STARTPROPERTIES 19
FOUNDRY "FreeType"
FAMILY_NAME "Icons"
WEIGHT_NAME "Medium"
SLANT "R"
SETWIDTH_NAME "Normal"
ADD_STYLE_NAME ""
PIXEL_SIZE 33
POINT_SIZE 240
RESOLUTION_X 100
RESOLUTION_Y 100
SPACING "P"
AVERAGE_WIDTH 312
CHARSET_REGISTRY "ISO10646"
CHARSET_ENCODING "1"
FONT_ASCENT 33
FONT_DESCENT 4
COPYRIGHT "Created by P.J. Onori with FontForge 2.0 (http://fontforge.sf.net)"
_OTF_FONTFILE "open-iconic.ttf"
_OTF_PSNAME "open-iconic"
ENDPROPERTIES
CHARS 13
STARTCHAR E02E
ENCODING 57390
SWIDTH 510 0
DWIDTH 17 0
BBX 17 33 0 0
BITMAP
000080
000180
000380
000780
000F80
001F80
003F80
007F80
00FF80
01FF80
03FF80
07FF80
0FFF80
1FFF80
3FFF80
7FFF80
FFFF80
7FFF80
3FFF80
1FFF80
0FFF80
07FF80
03FF80
01FF80
00FF80
007F80
003F80
001F80
000F80
000780
000380
000180
000080
ENDCHAR
STARTCHAR E093
ENCODING 57491
SWIDTH 750 0
DWIDTH 25 0
BBX 25 25 0 4
BITMAP
80000000
E0000000
F8000000
FE000000
FF800000
FFE00000
FFF80000
FFFE0000
FFFF8000
FFFFE000
FFFFF800
FFFFFE00
FFFFFF80
FFFFFE00
FFFFF800
FFFFE000
FFFF8000
FFFE0000
FFF80000
FFE00000
FF800000
FE000000
F8000000
E0000000
80000000
ENDCHAR
STARTCHAR E097
ENCODING 57495
SWIDTH 990 0
DWIDTH 33 0
BBX 29 25 0 4
BITMAP
FF000008
FF000018
FF000078
FF0001F8
FF0003F8
FF000FF8
FF003FF8
FF007FF8
FF01FFF8
FF07FFF8
FF0FFFF8
FF3FFFF8
FFFFFFF8
FF3FFFF8
FF0FFFF8
FF07FFF8
FF01FFF8
FF007FF8
FF003FF8
FF000FF8
FF0003F8
FF0001F8
FF000078
FF000018
FF000008
ENDCHAR
STARTCHAR E098
ENCODING 57496
SWIDTH 990 0
DWIDTH 33 0
BBX 29 25 0 4
BITMAP
800007F8
C00007F8
F00007F8
FC0007F8
FE0007F8
FF8007F8
FFE007F8
FFF007F8
FFFC07F8
FFFF07F8
FFFF87F8
FFFFE7F8
FFFFFFF8
FFFFE7F8
FFFF87F8
FFFF07F8
FFFC07F8
FFF007F8
FFE007F8
FF8007F8
FE0007F8
FC0007F8
F00007F8
C00007F8
800007F8
ENDCHAR
STARTCHAR E0A1
ENCODING 57505
SWIDTH 990 0
DWIDTH 33 0
BBX 33 33 0 0
BITMAP
000003FF80
0001FFFF80
000FFFFF80
007FFFFF80
00FFFFFF80
00FFFFFF80
00FFFFFF80
00FFFFFF80
00FFFFC780
00FF000780
00F0000780
00F0000780
00F0000780
00F0000780
00F0000780
00F0000780
00F0000780
00F001FF80
00F003FF80
00F007FF80
00F007FF80
1FF007FF80
3FF007FF80
7FF007FF80
FFF007FF80
FFF007FF00
FFF003FF00
FFF001FE00
FFF0007800
7FF0000000
7FE0000000
3FC0000000
0F80000000
ENDCHAR
STARTCHAR E0A8
ENCODING 57512
SWIDTH 990 0
DWIDTH 33 0
BBX 29 33 0 -5
BITMAP
07FFFF00
0FFFFF80
0FFFFF80
0FFFFF00
00FFF800
00FFF800
00FFF800
00FFF800
00FFF800
00FFF800
00FFF800
00FFF800
00FFFF80
7FFFFFE0
7FFFFFF0
FFFFFFF8
FFFFFFF8
000F8000
000F8000
000F8000
000F8000
000F8000
000F8000
000F8000
000F8000
000F8000
000F8000
000F8000
000F8000
00070000
00070000
00060000
00020000
ENDCHAR
STARTCHAR E0B3
ENCODING 57523
SWIDTH 990 0
DWIDTH 33 0
BBX 33 33 0 0
BITMAP
000FF00080
003FFE0180
00FFFF8380
03FFFFC780
07F81FFF80
0FE003FF80
1F8000FF80
1F00007F80
3E0000FF80
7C0001FF80
7C0003FF80
780007FF80
F800000000
F000000000
F000000000
F000000000
F000000000
F000000000
F000000000
F000000000
F800000000
7800000000
7C00000000
7C00000000
3E00000000
1F00004000
1F8000E000
0FE003F000
07F80FF000
03FFFFE000
00FFFF8000
007FFF0000
000FF80000
ENDCHAR
STARTCHAR E0C2
ENCODING 57538
SWIDTH 990 0
DWIDTH 33 0
BBX 33 33 0 0
BITMAP
0000800000
0000800000
0000800000
0001C00000
0001C00000
0001C00000
0003E00000
0003E00000
0003E00000
0007F00000
0007F00000
0007F00000
FFFFFFFF80
7FFFFFFF00
1FFFFFFC00
0FFFFFF800
07FFFFF000
03FFFFE000
00FFFF8000
007FFF0000
003FFE0000
003FFE0000
003FFE0000
007FFF0000
007FFF0000
007F7F0000
00FC1F8000
00F80F8000
00F0078000
01E003C000
018000C000
0100004000
0200002000
ENDCHAR
STARTCHAR E0C3
ENCODING 57539
SWIDTH 990 0
DWIDTH 33 0
BBX 33 33 0 0
BITMAP
0001C00000
0001C00000
0003E00000
0001C00000
0600003000
0F00007800
0F00007800
0700007000
0001C00000
000FF80000
001FFC0000
003FFE0000
007FFF0000
007FFF0000
00FFFF8000
F0FFFF8780
F0FFFF8780
F0FFFF8780
00FFFF8000
007FFF0000
007FFF0000
003FFE0000
001FFC0000
000FF80000
0001C00000
0700007000
0F00007800
0F00007800
0600003000
0001C00000
0003E00000
0001C00000
0001C00000
ENDCHAR
STARTCHAR E0C5
ENCODING 57541
SWIDTH 990 0
DWIDTH 33 0
BBX 33 33 0 0
BITMAP
FFF8000000
FFFC000000
FFFE000000
FFFF000000
FE3F800000
F81FC00000
F80FE00000
F00FF00000
F00FF80000
F00FFC0000
F80FFE0000
FC1FFF0000
FFFFFF8000
7FFFFFC000
3FFFFFE000
1FFFFFF000
0FFFFFF800
07FFFFFC00
03FFFFFE00
01FFFFFF00
00FFFFFF80
007FFFFF00
003FFFFE00
001FFFFC00
000FFFF800
0007FFF000
0003FFE000
0001FFC000
0000FF8000
00007F0000
00003E0000
00001C0000
0000080000
ENDCHAR
STARTCHAR E0D5
ENCODING 57557
SWIDTH 990 0
DWIDTH 33 0
BBX 33 33 0 0
BITMAP
0007800000
0007800000
000F800000
001F800000
001F860000
003F87C000
007F87F000
007F87F800
FFFF81FC00
FFFF807E00
FFFF803E00
FFFF801F00
FFFF840F00
FFFF860F80
FFFF870780
FFFF878780
FFFF878780
FFFF878780
FFFF870780
FFFF860F80
FFFF840F00
FFFF801F00
FFFF803E00
FFFF807E00
FFFF81FC00
007F87F800
007F87F000
003F87C000
001F870000
001F800000
000F800000
0007800000
0007800000
ENDCHAR
STARTCHAR E0D6
ENCODING 57558
SWIDTH 750 0
DWIDTH 25 0
BBX 25 33 0 0
BITMAP
00078000
00078000
000F8000
001F8000
001F8000
003F8000
007F8000
007F8000
FFFF8000
FFFF8000
FFFF8000
FFFF8000
FFFF8400
FFFF8600
FFFF8700
FFFF8780
FFFF8780
FFFF8780
FFFF8700
FFFF8600
FFFF8400
FFFF8000
FFFF8000
FFFF8000
FFFF8000
007F8000
007F8000
003F8000
001F8000
001F8000
000F8000
00078000
00078000
ENDCHAR
STARTCHAR E0D7
ENCODING 57559
SWIDTH 510 0
DWIDTH 17 0
BBX 17 33 0 0
BITMAP
000780
000780
000F80
001F80
001F80
003F80
007F80
007F80
FFFF80
FFFF80
FFFF80
FFFF80
FFFF80
FFFF80
FFFF80
FFFF80
FFFF80
FFFF80
FFFF80
FFFF80
FFFF80
FFFF80
FFFF80
FFFF80
FFFF80
007F80
007F80
003F80
001F80
001F80
000F80
000780
000780
ENDCHAR
ENDFONT
